<svg id="Capa_1" enable-background="new 0 0 512 512" height="512" viewBox="0 0 512 512" width="512" xmlns="http://www.w3.org/2000/svg"><circle cx="256" cy="356.951" fill="#68ca44" r="105.722"/><circle cx="113.207" cy="155.049" fill="#fac600" r="105.722"/><circle cx="398.793" cy="155.049" fill="#fb2b3a" r="105.722"/><path d="m361.721 356.95c0 58.39-47.331 105.721-105.721 105.721-34.655 0-65.417-16.669-84.7-42.43 18.275 15.071 41.701 24.124 67.233 24.124 58.39 0 105.721-47.331 105.721-105.721 0-23.725-7.815-45.624-21-63.271 23.495 19.384 38.467 48.729 38.467 81.577z" fill="#4fc123"/><path d="m218.93 155.05c0 58.39-47.331 105.721-105.721 105.721-34.655 0-65.417-16.669-84.7-42.43 18.275 15.072 41.701 24.124 67.233 24.124 58.39 0 105.721-47.331 105.721-105.721 0-23.725-7.815-45.624-21-63.271 23.495 19.384 38.467 48.729 38.467 81.577z" fill="#e0ae10"/><path d="m504.512 155.05c0 58.39-47.331 105.721-105.721 105.721-34.655 0-65.417-16.669-84.701-42.43 18.276 15.072 41.701 24.124 67.233 24.124 58.39 0 105.721-47.331 105.721-105.721 0-23.725-7.815-45.624-21-63.271 23.496 19.384 38.468 48.729 38.468 81.577z" fill="#e41f2d"/><path d="m208.416 358.124c4.135 0 7.486-3.352 7.486-7.486v-14.584c0-4.134-3.351-7.486-7.486-7.486s-7.486 3.352-7.486 7.486v14.584c0 4.134 3.351 7.486 7.486 7.486z"/><path d="m310.735 350.638v-14.584c0-4.134-3.351-7.486-7.486-7.486s-7.486 3.352-7.486 7.486v14.584c0 4.134 3.351 7.486 7.486 7.486s7.486-3.352 7.486-7.486z"/><path d="m208.416 395.819h94.833c4.135 0 7.486-3.352 7.486-7.486s-3.351-7.486-7.486-7.486h-94.833c-4.135 0-7.486 3.352-7.486 7.486s3.351 7.486 7.486 7.486z"/><path d="m226.414 155.049c0-62.423-50.785-113.208-113.208-113.208s-113.206 50.785-113.206 113.208 50.784 113.208 113.207 113.208 113.207-50.785 113.207-113.208zm-113.207 98.236c-54.167 0-98.235-44.068-98.235-98.236 0-54.167 44.068-98.236 98.235-98.236s98.236 44.068 98.236 98.236c-.001 54.168-44.069 98.236-98.236 98.236z"/><path d="m73.276 148.736v-14.584c0-4.134-3.351-7.486-7.486-7.486s-7.486 3.352-7.486 7.486v14.584c0 4.134 3.351 7.486 7.486 7.486s7.486-3.351 7.486-7.486z"/><path d="m160.624 126.666c-4.135 0-7.486 3.352-7.486 7.486v14.584c0 4.134 3.351 7.486 7.486 7.486s7.486-3.352 7.486-7.486v-14.584c0-4.134-3.351-7.486-7.486-7.486z"/><path d="m156.145 179.719c-3.434-2.297-8.084-1.376-10.384 2.062-7.217 10.791-19.262 17.358-32.222 17.567-13.132.207-25.437-6.078-32.984-16.822-2.375-3.382-7.044-4.199-10.428-1.823-3.383 2.376-4.2 7.045-1.824 10.429 10.234 14.568 26.852 23.193 44.595 23.193.293 0 .588-.002.883-.007 17.87-.288 34.478-9.34 44.425-24.214 2.299-3.437 1.376-8.086-2.061-10.385z"/><path d="m398.793 41.842c-28.815 0-56.269 10.833-77.305 30.503-3.021 2.823-3.18 7.56-.356 10.581 2.824 3.019 7.562 3.18 10.581.355 18.254-17.067 42.076-26.467 67.08-26.467 54.167 0 98.235 44.068 98.235 98.236 0 54.167-44.068 98.236-98.235 98.236s-98.236-44.068-98.236-98.236c0-16.215 4.031-32.28 11.657-46.458 1.958-3.641.594-8.18-3.047-10.139-3.64-1.957-8.18-.594-10.139 3.047-8.794 16.351-13.442 34.868-13.442 53.55 0 62.423 50.785 113.208 113.208 113.208s113.206-50.786 113.206-113.209-50.784-113.207-113.207-113.207z"/><path d="m351.376 126.666c-4.135 0-7.486 3.352-7.486 7.486v14.584c0 4.134 3.351 7.486 7.486 7.486s7.486-3.352 7.486-7.486v-14.584c0-4.134-3.351-7.486-7.486-7.486z"/><path d="m453.696 148.736v-14.584c0-4.134-3.351-7.486-7.486-7.486s-7.486 3.352-7.486 7.486v14.584c0 4.134 3.351 7.486 7.486 7.486s7.486-3.351 7.486-7.486z"/><path d="m398.545 173.016c-17.871.288-34.478 9.34-44.425 24.214-2.298 3.437-1.375 8.086 2.062 10.384 1.278.855 2.723 1.264 4.154 1.264 2.415 0 4.786-1.167 6.229-3.325 7.217-10.791 19.263-17.358 32.222-17.567 13.072-.224 25.437 6.077 32.984 16.822 2.376 3.383 7.045 4.202 10.429 1.823 3.383-2.376 4.2-7.045 1.824-10.429-10.404-14.809-27.426-23.488-45.479-23.186z"/><path d="m256 243.743c-62.422 0-113.208 50.785-113.208 113.208s50.786 113.207 113.208 113.207c5.051 0 10.132-.336 15.102-1 4.098-.547 6.977-4.312 6.43-8.41-.549-4.099-4.319-6.979-8.411-6.43-4.316.576-8.731.868-13.122.868-54.167 0-98.236-44.068-98.236-98.236 0-54.167 44.068-98.236 98.236-98.236s98.236 44.068 98.236 98.236c0 37.401-20.78 71.065-54.232 87.855-3.695 1.855-5.187 6.354-3.333 10.048 1.854 3.695 6.354 5.187 10.048 3.333 38.544-19.346 62.488-58.138 62.488-101.236.002-62.422-50.784-113.207-113.206-113.207z"/></svg>